<svg id="Capa_1" enable-background="new 0 0 512 512" height="512" viewBox="0 0 512 512" width="512" xmlns="http://www.w3.org/2000/svg"><g><circle id="XMLID_91_" cx="256" cy="256" fill="#61606d" r="256"/><path d="m264.909 511.829c134.251-4.594 242.248-112.546 246.914-246.778l-84.126-84.126-36.507 21.539-117.99-117.991-188.974 246.524z" fill="#48484f"/><g><g><g><path d="m260.781 172.26c-15.418 0-28.033 12.615-28.033 28.033v209.892c0 15.418 12.615 28.033 28.033 28.033h73.354l54.884-166.782-54.884-99.176z" fill="#ffe35a"/></g><path d="m407.489 172.26h-73.354v265.957h73.354c15.418 0 28.033-12.615 28.033-28.033v-209.891c0-15.418-12.614-28.033-28.033-28.033z" fill="#fb2"/></g><g><path d="m279.798 200.824c0 10.357-8.396 18.753-18.753 18.753v171.323c10.357 0 18.753 8.396 18.753 18.753h54.337l47.998-109.321-47.998-99.508z" fill="#9645d6"/></g><path d="m407.225 390.9v-171.322c-10.357 0-18.753-8.396-18.753-18.753h-54.337v208.829h54.337c0-10.358 8.396-18.754 18.753-18.754z" fill="#582aa0"/><g><g><g><g><path d="m104.511 73.782c-15.418 0-28.033 12.615-28.033 28.033v209.892c0 15.418 12.615 28.033 28.033 28.033h73.354l54.884-166.782-54.884-99.176z" fill="#fb2"/></g></g><path d="m251.219 73.782h-73.354v265.958h73.354c15.418 0 28.033-12.615 28.033-28.033v-209.892c0-15.418-12.615-28.033-28.033-28.033z" fill="#fc8f1a"/></g><g><path d="m123.528 102.346c0 10.357-8.396 18.753-18.753 18.753v171.323c10.357 0 18.753 8.396 18.753 18.753h54.337l47.998-109.321-47.998-99.508z" fill="#fff"/></g><path d="m250.955 292.422v-171.322c-10.357 0-18.753-8.396-18.753-18.753h-54.337v208.829h54.337c0-10.358 8.396-18.754 18.753-18.754z" fill="#dbdbdb"/><g><path d="m160.065 189.552c0-11.894 5.931-22.404 15-28.73-24.071 1.468-43.139 21.458-43.139 45.897 0 25.38 20.565 45.958 45.939 45.981l14.293-13.34-14.293-19.321c-10.626-6.01-17.8-17.408-17.8-30.487z" fill="#fb2"/></g><path d="m186.094 251.971c20.58-3.699 36.41-21.091 37.71-42.41-6.326 9.069-16.836 15-28.73 15-3.105 0-6.114-.406-8.98-1.165-2.91-.77-5.668-1.909-8.229-3.358v32.661c.014 0 .029.001.043.001 2.794 0 5.529-.252 8.186-.729z" fill="#fc8f1a"/></g><g><path d="m320.018 280.788-27.408.476 13.291 23.975-13.291 23.974 27.408.477 14.117 23.498 20.763-45.603-20.763-50.295z" fill="#fff"/></g><path d="m348.252 329.69 27.408-.477-13.291-23.974 13.291-23.975-27.408-.476-14.117-23.498v95.898z" fill="#dbdbdb"/></g></g></svg>